HIERARCHY
ROOT Pelvis
{
	OFFSET 0.000000 0.000000 0.000000
	CHANNELS 6 Xposition Yposition Zposition Zrotation Yrotation Xrotation 
	JOINT Left_hip
	{
		OFFSET 0.069463 -0.088608 -0.009542
		CHANNELS 3 Zrotation Yrotation Xrotation
		JOINT Left_knee
		{
			OFFSET 0.030639 -0.359740 -0.005288
			CHANNELS 3 Zrotation Yrotation Xrotation
			JOINT Left_ankle
			{
				OFFSET -0.011068 -0.376034 -0.042462
				CHANNELS 3 Zrotation Yrotation Xrotation
				JOINT Left_foot
				{
					OFFSET 0.023192 -0.053321 0.111332
					CHANNELS 3 Zrotation Yrotation Xrotation
					End Site
					{
						OFFSET 0.000000 0.000000 0.000000
					}
				}
			}
		}
	}
	JOINT Right_hip
	{
		OFFSET -0.067438 -0.088025 -0.006263
		CHANNELS 3 Zrotation Yrotation Xrotation
		JOINT Right_knee
		{
			OFFSET -0.035962 -0.366229 -0.008063
			CHANNELS 3 Zrotation Yrotation Xrotation
			JOINT Right_ankle
			{
				OFFSET 0.013608 -0.375719 -0.040481
				CHANNELS 3 Zrotation Yrotation Xrotation
				JOINT Right_foot
				{
					OFFSET -0.021034 -0.045527 0.114617
					CHANNELS 3 Zrotation Yrotation Xrotation
					End Site
					{
						OFFSET 0.000000 0.000000 0.000000
					}
				}
			}
		}
	}
	JOINT Spine1
	{
		OFFSET -0.002610 0.101823 -0.019986
		CHANNELS 3 Zrotation Yrotation Xrotation
		JOINT Spine2
		{
			OFFSET 0.004114 0.128714 -0.000938
			CHANNELS 3 Zrotation Yrotation Xrotation
			JOINT Spine3
			{
				OFFSET 0.002191 0.048470 0.027684
				CHANNELS 3 Zrotation Yrotation Xrotation
				JOINT Neck
				{
					OFFSET -0.002856 0.198873 -0.044022
					CHANNELS 3 Zrotation Yrotation Xrotation
					JOINT Head
					{
						OFFSET 0.002981 0.062960 0.049860
						CHANNELS 3 Zrotation Yrotation Xrotation
						End Site
						{
							OFFSET 0.000000 0.000000 0.000000
						}
					}
				}
				JOINT Left_collar
				{
					OFFSET 0.073708 0.112550 -0.033440
					CHANNELS 3 Zrotation Yrotation Xrotation
					JOINT Left_shoulder
					{
						OFFSET 0.083291 0.030786 -0.008013
						CHANNELS 3 Zrotation Yrotation Xrotation
						JOINT Left_elbow
						{
							OFFSET 0.245601 -0.011792 -0.027873
							CHANNELS 3 Zrotation Yrotation Xrotation
							JOINT Left_wrist
							{
								OFFSET 0.232258 0.008622 -0.000487
								CHANNELS 3 Zrotation Yrotation Xrotation
								JOINT Left_palm
								{
									OFFSET 0.077300 -0.009457 -0.012851
									CHANNELS 3 Zrotation Yrotation Xrotation
									End Site
									{
										OFFSET 0.000000 0.000000 0.000000
									}
								}
							}
						}
					}
				}
				JOINT Right_collar
				{
					OFFSET -0.075339 0.110574 -0.037874
					CHANNELS 3 Zrotation Yrotation Xrotation
					JOINT Right_shoulder
					{
						OFFSET -0.086522 0.031207 -0.009986
						CHANNELS 3 Zrotation Yrotation Xrotation
						JOINT Right_elbow
						{
							OFFSET -0.237313 -0.011478 -0.019859
							CHANNELS 3 Zrotation Yrotation Xrotation
							JOINT Right_wrist
							{
								OFFSET -0.237599 0.007976 -0.003742
								CHANNELS 3 Zrotation Yrotation Xrotation
								JOINT Right_palm
								{
									OFFSET -0.076920 -0.006943 -0.009920
									CHANNELS 3 Zrotation Yrotation Xrotation
									End Site
									{
										OFFSET 0.000000 0.000000 0.000000
									}
								}
							}
						}
					}
				}
			}
		}
	}
}
MOTION
Frames: 9
Frame Time: 0.100000
0.000000 0.000000 0.000000 176.809584 29.779564 -23.386402 0.266963 3.504172 16.387830 0.707662 -12.805723 -4.477840 2.361803 4.423969 -2.144327 -7.148345 7.643513 -3.541884 0.339370 -4.542043 19.261708 -1.515930 3.277552 -6.077519 -4.014526 -7.884547 -5.995923 8.052269 -0.238903 9.428362 0.780840 0.471258 4.303503 0.174592 -4.147054 5.004213 -0.475267 -3.116203 -1.238679 -0.068561 -10.947958 5.780104 -1.739711 -12.951674 2.604959 -31.355123 1.285059 5.207438 -51.472587 -6.556422 8.415039 1.305928 -14.939527 14.216001 -12.706278 2.810620 -1.773981 -8.693033 -3.742653 -9.254840 32.079716 3.558771 3.148026 53.056169 1.583583 12.049176 -5.732588 12.275300 -0.879002 8.781961 -3.360630 -1.740876 11.394451 8.325730 -3.615865 
-0.000629 -0.000257 0.002596 176.875868 29.503162 -23.524058 0.326230 3.601460 16.795439 0.758009 -12.754612 -4.493591 2.493788 4.521428 -2.272840 -7.317951 7.698681 -3.493795 0.333593 -4.634561 19.656162 -1.546339 3.419844 -6.194183 -4.072482 -7.757090 -6.046760 8.224202 -0.200473 9.492979 0.761709 0.548135 4.104370 0.118830 -4.068515 5.101730 -0.557603 -3.031428 -1.274019 -0.014846 -11.007287 6.149942 -1.821130 -13.014444 2.984744 -31.478470 1.289893 5.168159 -51.333181 -6.666031 8.317631 1.428333 -14.949031 14.059862 -12.706513 2.884748 -1.698528 -8.706460 -3.761585 -9.157070 32.205854 3.674848 3.206066 52.957384 1.713553 12.086277 -5.650542 12.025684 -0.777527 8.776765 -3.454233 -1.481018 11.449430 8.362067 -3.598262 
-0.001157 -0.000599 0.005191 176.936273 29.311268 -23.569184 0.379930 3.641341 17.046169 0.775575 -12.740306 -4.494312 2.396425 4.628374 -2.386989 -7.155353 7.719913 -3.604314 0.370742 -4.635612 19.824306 -1.579239 3.489522 -6.108868 -3.900933 -7.737645 -6.185155 8.046152 -0.074623 9.338128 0.706208 0.562251 3.997939 0.031007 -3.961949 5.074793 -0.664423 -2.985033 -1.196654 0.022278 -11.097678 6.319134 -1.874742 -13.145053 3.337010 -31.429923 1.702830 5.031166 -51.263441 -6.623823 8.198971 1.751640 -15.994806 13.786718 -12.282866 2.703618 -1.818046 -8.647869 -3.722894 -8.926909 32.134491 3.460571 3.080829 53.050317 1.535344 12.309084 -5.618115 12.904326 -0.465914 8.567075 -3.328835 -1.384451 11.389400 8.342164 -3.497651 
-0.001906 -0.001030 0.008115 176.867494 29.282344 -23.964493 0.411922 3.546359 17.281524 0.779747 -12.857176 -3.869493 2.690136 4.809315 -2.735203 -7.359042 7.794474 -3.698615 0.430342 -4.682387 20.180102 -1.528215 3.470799 -5.748257 -4.128952 -7.703578 -6.365611 8.281377 -0.227101 9.383604 0.576752 0.614105 3.886097 0.003400 -3.954538 5.303847 -0.733987 -2.971472 -1.050743 -0.167238 -11.340132 7.752579 -1.992486 -13.168391 4.029120 -31.168378 1.828397 5.318358 -51.406492 -6.634332 8.014362 1.994105 -16.314463 13.442233 -12.473390 2.774298 -2.503385 -8.496686 -3.626808 -8.708739 31.922920 3.440343 3.319693 53.413854 1.520528 12.280966 -5.616132 13.187088 -0.377719 8.752954 -3.448148 -1.837967 11.297624 8.318182 -3.353574 
-0.004809 -0.001498 0.014072 176.987018 29.033834 -25.580331 0.589775 3.935957 19.351094 0.764082 -13.458017 -3.434381 3.737926 5.055447 -3.210117 -8.495936 8.252343 -4.225710 -0.019353 -4.845551 22.079241 -1.197334 3.718069 -5.050952 -5.457398 -7.675562 -7.111633 10.407744 -0.209841 10.505339 0.385606 0.657051 2.486676 0.036466 -3.783329 5.966067 -1.438742 -3.031232 -0.495822 -1.957770 -11.202398 17.915882 -5.433323 -12.926995 11.770568 -31.238442 2.827176 6.090126 -50.782039 -7.656805 7.588324 2.102131 -15.461153 12.639010 -13.995404 3.729901 -3.905143 -8.234826 -3.409117 -8.147501 32.880594 2.603116 3.779324 52.816607 2.817184 12.312192 -5.189419 11.705312 -1.078093 9.318322 -4.200301 -2.258924 11.475184 8.422318 -2.752228 
-0.006308 -0.000486 0.010000 176.699949 29.246593 -24.475988 0.378315 3.889549 17.135162 0.700961 -13.303343 -2.124881 3.300062 4.949241 -4.014336 -7.847679 8.642210 -4.283827 0.110828 -4.921038 20.240270 -1.229517 3.657407 -4.328224 -4.160451 -7.685871 -7.685080 9.254679 0.293023 9.809709 0.447415 0.598052 4.594355 0.301740 -3.698206 5.595839 -1.050843 -3.145578 -0.162753 -0.127982 -10.949184 13.154212 -4.245726 -13.184629 9.637850 -32.066851 4.085673 4.724724 -49.780912 -7.045127 7.552788 1.917708 -19.868379 13.100338 -12.009867 3.118600 -2.110290 -8.783527 -3.752044 -8.277864 33.341300 1.267705 2.255853 51.776844 1.834937 12.407231 -6.197873 16.523498 -1.752536 7.909418 -3.258932 -1.399091 11.871433 8.626890 -2.964789 
-0.005472 -0.000836 -0.000584 176.108616 30.278541 -20.493208 0.557083 3.456419 11.700006 -0.343979 -12.157697 -2.114810 3.101800 3.835243 -3.029945 -8.316565 8.054524 -2.033934 0.617195 -4.482298 15.056620 -1.093765 2.710539 -4.379008 -3.748248 -7.407177 -6.533315 7.987075 -0.988211 8.985718 0.456014 0.879709 8.598509 0.394129 -4.525964 4.862115 0.356437 -2.858519 -1.705399 2.819621 -11.832141 -2.936390 3.875581 -13.995343 -6.198532 -29.401193 -2.021218 4.762806 -47.117510 -6.131467 7.921750 -1.521971 -16.444191 16.955657 -13.171833 2.528231 1.519106 -9.277487 -3.888875 -10.539055 29.673624 5.722908 3.206098 52.955113 -0.107779 11.842080 -4.317626 17.743499 2.425524 9.575497 -2.361887 -1.637395 11.426210 8.651449 -4.441434 
-0.010867 -0.000645 -0.003260 175.944659 30.324229 -18.133874 0.401073 3.316591 9.066121 -0.886582 -11.858020 -2.021776 3.255410 3.854059 -2.689642 -8.408490 7.798232 -0.664876 0.787692 -4.008922 11.136365 -1.068308 2.725955 -1.838195 -3.509730 -8.246488 -6.867867 6.916076 -0.510680 8.105600 0.638162 0.849685 9.825155 0.437048 -4.872595 4.150474 1.006358 -2.560819 -2.404849 3.777677 -10.918495 -11.966214 7.151163 -13.511424 -13.820438 -26.981866 -7.034497 4.268311 -43.132363 -6.101224 7.500249 -2.128559 -10.309047 18.080522 -11.784148 3.572019 5.592213 -9.626842 -4.031566 -12.265025 27.317905 10.035899 3.682408 52.001772 -0.214684 12.759461 -2.032861 17.415529 7.688632 9.434280 -2.103903 0.869041 11.179221 8.704480 -5.459370 
-0.027033 -0.003420 0.008617 175.926614 30.341054 -18.979569 0.362334 3.978664 11.663237 -0.920440 -12.638337 -2.882754 2.880001 3.673545 -3.119206 -8.054922 7.533931 -1.027208 0.313356 -4.429924 13.160473 -1.601050 2.873721 -1.745582 -2.519779 -8.363292 -7.145435 6.169984 -0.069299 7.053536 0.501145 0.665059 7.747972 0.662358 -4.837175 3.804497 0.920271 -2.653377 -2.091066 2.971024 -10.645883 -8.092962 5.636014 -13.152807 -10.890872 -25.372273 -5.250881 4.009056 -42.868206 -6.344527 7.211035 -0.140225 -15.484088 18.002395 -8.206770 3.416688 4.815035 -9.621527 -3.873184 -11.366316 26.531240 8.503203 2.781301 52.286286 -0.324185 12.869671 -2.842768 20.400462 7.481665 7.933472 -1.965937 0.590498 11.136202 8.625549 -4.984438 
